<?xml version="1.0" encoding="UTF-8"?>
<svg id="Layer_1" data-name="Layer 1" xmlns="http://www.w3.org/2000/svg" viewBox="0 0 380 504">
  <defs>
    <style>
      .cls-1 {
        stroke-width: .75px;
      }

      .cls-1, .cls-2, .cls-3, .cls-4, .cls-5, .cls-6, .cls-7, .cls-8, .cls-9, .cls-10, .cls-11, .cls-12, .cls-13, .cls-14, .cls-15 {
        stroke: #e91c24;
        stroke-miterlimit: 10;
      }

      .cls-2 {
        opacity: .5;
        stroke-width: 1.46px;
      }

      .cls-2, .cls-3, .cls-4, .cls-5, .cls-6, .cls-7, .cls-8, .cls-9, .cls-10, .cls-11, .cls-12, .cls-13, .cls-14, .cls-15 {
        fill: none;
      }

      .cls-3 {
        opacity: .09;
        stroke-width: .69px;
      }

      .cls-4 {
        opacity: .17;
        stroke-width: .83px;
      }

      .cls-5 {
        opacity: .28;
        stroke-width: 1.04px;
      }

      .cls-6 {
        opacity: .35;
        stroke-width: 1.18px;
      }

      .cls-7 {
        opacity: .2;
        stroke-width: .9px;
      }

      .cls-8 {
        opacity: .46;
        stroke-width: 1.39px;
      }

      .cls-9 {
        opacity: .13;
        stroke-width: .76px;
      }

      .cls-10 {
        opacity: .06;
        stroke-width: .62px;
      }

      .cls-11 {
        opacity: .02;
        stroke-width: .55px;
      }

      .cls-12 {
        opacity: .39;
        stroke-width: 1.25px;
      }

      .cls-13 {
        opacity: .43;
        stroke-width: 1.32px;
      }

      .cls-14 {
        opacity: .32;
        stroke-width: 1.11px;
      }

      .cls-15 {
        opacity: .24;
        stroke-width: .97px;
      }
    </style>
  </defs>
  <g>
    <path class="cls-2" d="m57.05,489c-22.88,0-41.51-19.75-41.57-44.05l1.16-69.19c6.27-2.14,12.29-4.97,18.01-8.48,8.17-5.02,15.53-11.31,21.85-18.69l21.81-25.46-62.82,1.32V59.17c0-24.36,18.65-44.17,41.57-44.17h265.2c22.92,0,41.57,19.81,41.57,44.17v262.92h-52.8l14.29,22.93c5.06,8.12,11.55,14.9,19.29,20.15,6.83,4.63,13.69,7.42,19.92,9.05l-.7,70.61c0,24.36-18.65,44.17-41.57,44.17H57.05Z"/>
    <path class="cls-8" d="m63.39,480.84c-21.79,0-39.53-18.81-39.58-41.95l1.11-65.89c5.97-2.04,11.7-4.74,17.15-8.08,7.78-4.78,14.79-10.77,20.81-17.8l20.76-24.24-59.83,1.26V71.52c0-23.19,17.76-42.06,39.58-42.06h252.55c21.83,0,39.58,18.87,39.58,42.06v250.37h-50.28l13.61,21.84c4.82,7.73,11,14.19,18.37,19.19,6.51,4.41,13.04,7.06,18.97,8.61l-.67,67.24c0,23.19-17.76,42.06-39.58,42.06H63.39Z"/>
    <path class="cls-13" d="m69.74,472.69c-20.7,0-37.54-17.87-37.6-39.85l1.05-62.58c5.67-1.93,11.12-4.5,16.29-7.67,7.39-4.54,14.05-10.23,19.77-16.91l19.72-23.03-56.83,1.19V83.88c0-22.03,16.87-39.95,37.6-39.95h239.89c20.73,0,37.6,17.92,37.6,39.95v237.83h-47.76l12.93,20.75c4.58,7.35,10.45,13.48,17.45,18.23,6.18,4.19,12.39,6.71,18.02,8.18l-.64,63.88c0,22.03-16.87,39.95-37.6,39.95H69.74Z"/>
    <path class="cls-12" d="m76.08,464.53c-19.61,0-35.56-16.92-35.62-37.75l1-59.28c5.37-1.83,10.53-4.26,15.43-7.27,7-4.3,13.3-9.69,18.72-16.02l18.68-21.81-53.83,1.13V96.23c0-20.87,15.98-37.85,35.62-37.85h227.24c19.64,0,35.62,16.98,35.62,37.85v225.28h-45.24l12.25,19.65c4.34,6.96,9.9,12.77,16.53,17.27,5.85,3.97,11.73,6.35,17.07,7.75l-.6,60.51c0,20.87-15.98,37.85-35.62,37.85H76.08Z"/>
    <path class="cls-6" d="m82.42,456.38c-18.52,0-33.58-15.98-33.63-35.64l.94-55.98c5.07-1.73,9.95-4.02,14.57-6.86,6.61-4.06,12.56-9.15,17.68-15.13l17.64-20.6-50.83,1.07V108.59c0-19.71,15.09-35.74,33.63-35.74h214.58c18.55,0,33.63,16.03,33.63,35.74v212.74h-42.72l11.56,18.56c4.1,6.57,9.35,12.06,15.61,16.3,5.53,3.75,11.08,6,16.12,7.32l-.57,57.14c0,19.71-15.09,35.74-33.63,35.74H82.42Z"/>
    <path class="cls-14" d="m88.77,448.22c-17.42,0-31.6-15.04-31.65-33.54l.88-52.68c4.77-1.63,9.36-3.79,13.71-6.46,6.22-3.82,11.82-8.61,16.64-14.23l16.6-19.38-47.84,1V120.94c0-18.54,14.2-33.63,31.65-33.63h201.93c17.45,0,31.65,15.09,31.65,33.63v200.19h-40.2l10.88,17.46c3.85,6.18,8.8,11.35,14.69,15.34,5.2,3.53,10.43,5.65,15.17,6.89l-.54,53.77c0,18.54-14.2,33.63-31.65,33.63H88.77Z"/>
    <path class="cls-5" d="m95.11,440.07c-16.33,0-29.62-14.1-29.67-31.44l.83-49.38c4.47-1.53,8.77-3.55,12.85-6.05,5.83-3.58,11.08-8.07,15.6-13.34l15.56-18.17-44.84.94v-189.33c0-17.38,13.31-31.52,29.67-31.52h189.28c16.36,0,29.67,14.14,29.67,31.52v187.65h-37.68l10.2,16.37c3.61,5.8,8.24,10.64,13.77,14.38,4.88,3.31,9.77,5.29,14.22,6.46l-.5,50.4c0,17.38-13.31,31.52-29.67,31.52H95.11Z"/>
    <path class="cls-15" d="m101.46,431.91c-15.24,0-27.64-13.15-27.68-29.34l.77-46.08c4.17-1.42,8.19-3.31,11.99-5.65,5.44-3.34,10.34-7.53,14.55-12.45l14.52-16.95-41.84.88v-176.67c0-16.22,12.42-29.42,27.68-29.42h176.62c15.26,0,27.68,13.2,27.68,29.42v175.1h-35.16l9.52,15.27c3.37,5.41,7.69,9.92,12.85,13.42,4.55,3.09,9.12,4.94,13.27,6.02l-.47,47.03c0,16.22-12.42,29.42-27.68,29.42H101.46Z"/>
    <path class="cls-7" d="m107.8,423.76c-14.15,0-25.66-12.21-25.7-27.24l.72-42.78c3.88-1.32,7.6-3.08,11.13-5.24,5.05-3.1,9.6-6.99,13.51-11.56l13.48-15.74-38.84.82v-164.02c0-15.06,11.53-27.31,25.7-27.31h163.97c14.17,0,25.7,12.25,25.7,27.31v162.56h-32.65l8.84,14.18c3.13,5.02,7.14,9.21,11.93,12.46,4.22,2.87,8.47,4.59,12.32,5.59l-.43,43.66c0,15.06-11.53,27.31-25.7,27.31H107.8Z"/>
    <path class="cls-4" d="m114.14,415.6c-13.06,0-23.68-11.27-23.72-25.13l.66-39.48c3.58-1.22,7.01-2.84,10.27-4.84,4.66-2.86,8.86-6.45,12.47-10.67l12.44-14.53-35.85.75v-151.36c0-13.9,10.64-25.2,23.72-25.2h151.31c13.08,0,23.72,11.31,23.72,25.2v150.01h-30.13l8.15,13.09c2.89,4.63,6.59,8.5,11.01,11.5,3.9,2.64,7.81,4.23,11.37,5.16l-.4,40.29c0,13.9-10.64,25.2-23.72,25.2H114.14Z"/>
    <path class="cls-9" d="m120.49,407.44c-11.96,0-21.7-10.33-21.73-23.03l.61-36.17c3.28-1.12,6.43-2.6,9.41-4.44,4.27-2.62,8.12-5.91,11.43-9.77l11.4-13.31-32.85.69v-138.7c0-12.73,9.75-23.09,21.73-23.09h138.66c11.98,0,21.73,10.36,21.73,23.09v137.47h-27.61l7.47,11.99c2.65,4.25,6.04,7.79,10.09,10.54,3.57,2.42,7.16,3.88,10.42,4.73l-.37,36.92c0,12.73-9.75,23.09-21.73,23.09H120.49Z"/>
    <path class="cls-3" d="m126.83,399.29c-10.87,0-19.72-9.38-19.75-20.93l.55-32.87c2.98-1.02,5.84-2.36,8.56-4.03,3.88-2.38,7.38-5.37,10.38-8.88l10.36-12.1-29.85.63v-126.04c0-11.57,8.86-20.99,19.75-20.99h126.01c10.89,0,19.75,9.41,19.75,20.99v124.92h-25.09l6.79,10.9c2.41,3.86,5.49,7.08,9.17,9.57,3.25,2.2,6.51,3.52,9.46,4.3l-.33,33.55c0,11.57-8.86,20.99-19.75,20.99h-126.01Z"/>
    <path class="cls-10" d="m133.17,391.13c-9.78,0-17.74-8.44-17.77-18.83l.5-29.57c2.68-.91,5.25-2.13,7.7-3.63,3.49-2.15,6.64-4.83,9.34-7.99l9.32-10.88-26.85.56v-113.38c0-10.41,7.97-18.88,17.77-18.88h113.35c9.8,0,17.77,8.47,17.77,18.88v112.38h-22.57l6.11,9.8c2.16,3.47,4.94,6.37,8.24,8.61,2.92,1.98,5.85,3.17,8.51,3.87l-.3,30.18c0,10.41-7.97,18.88-17.77,18.88h-113.35Z"/>
    <path class="cls-11" d="m139.52,382.98c-8.69,0-15.76-7.5-15.78-16.73l.44-26.27c2.38-.81,4.67-1.89,6.84-3.22,3.1-1.91,5.9-4.29,8.3-7.1l8.28-9.67-23.85.5v-100.73c0-9.25,7.08-16.77,15.78-16.77h100.7c8.7,0,15.78,7.52,15.78,16.77v99.83h-20.05l5.43,8.71c1.92,3.08,4.39,5.66,7.32,7.65,2.59,1.76,5.2,2.82,7.56,3.43l-.27,26.81c0,9.25-7.08,16.77-15.78,16.77h-100.7Z"/>
  </g>
  <g>
    <path class="cls-1" d="m284.28,59.9c-1.22.59-2.26,1.16-3.04,1.69v18.99l11.95,4.09c1.54-.62,5.65-.95,9.48-.98,4.03-.03,7.51.36,9.04.98l11.71-4.08c-.07-2.5.07-5.15,0-7.66-1.3.2-2.71.39-4.21.56l3.71-3.18v-12.74c-.31.08-.62.16-.95.25l1.89-2.75v-10.31l-42.62.02v10.73l3.04,4.4Z"/>
    <g>
      <path class="cls-1" d="m292.35,72.92c4.24.66,9.45,1.19,15.4,1.19,5.98,0,11.41-.53,15.66-1.19.07,2.51-.07,5.01,0,7.52-3.49-1.42-11.41-2.31-20.6-2.23-8.71.07-18.08.82-21.59,2.23v-18.85c3.17-2.16,10.75-5.01,17.3-7.2,6.81-2.27,12.88-2.96,17.01-3.17v-3.74l-34.31,7.85v-10.56l42.62-.02v10.22c-4.03.59-11.35,2.11-18.83,6.55-6.7,3.98-10.63,8.58-12.68,11.41Z"/>
      <path class="cls-1" d="m322.91,57.56v12.74c-3.12.63-7.2,1.19-11.99,1.22-5.1.03-9.43-.57-12.68-1.22,2.68-2.34,6.56-5.26,11.81-7.92,4.82-2.44,9.33-3.91,12.85-4.82Z"/>
    </g>
  </g>
</svg>