<?xml version="1.0" encoding="UTF-8"?>
<svg id="Layer_1" xmlns="http://www.w3.org/2000/svg" version="1.1" viewBox="0 0 380 504">
  <!-- Generator: Adobe Illustrator 29.1.0, SVG Export Plug-In . SVG Version: 2.1.0 Build 142)  -->
  <defs>
    <style>
      .st0 {
        opacity: .2;
        stroke-width: 1px;
      }

      .st0, .st1, .st2, .st3, .st4, .st5, .st6, .st7, .st8, .st9, .st10, .st11, .st12, .st13, .st14, .st15 {
        stroke-miterlimit: 10;
      }

      .st0, .st1, .st2, .st3, .st4, .st5, .st6, .st8, .st9, .st10, .st11, .st13, .st14, .st15 {
        fill: none;
        isolation: isolate;
        stroke: #AAE1F6;
      }

      .st1 {
        opacity: .5;
      }

      .st1, .st7 {
        stroke-width: 1.5px;
      }

      .st2 {
        opacity: 0;
        stroke-width: .6px;
      }

      .st3 {
        opacity: .1;
        stroke-width: .8px;
      }

      .st4 {
        opacity: .3;
        stroke-width: 1px;
      }

      .st5 {
        opacity: .5;
        stroke-width: 1.4px;
      }

      .st6 {
        opacity: .2;
        stroke-width: .8px;
      }

      .st7 {
        stroke: #000;
      }

      .st8 {
        opacity: .3;
        stroke-width: 1.1px;
      }

      .st9 {
        opacity: .2;
        stroke-width: .9px;
      }

      .st10 {
        opacity: .4;
        stroke-width: 1.2px;
      }

      .st11 {
        opacity: .4;
        stroke-width: 1.3px;
      }

      .st12 {
        stroke: #85bcff;
        stroke-width: .8px;
      }

      .st13 {
        opacity: .3;
        stroke-width: 1.2px;
      }

      .st14 {
        opacity: 0;
        stroke-width: .7px;
      }

      .st15 {
        opacity: 0;
        stroke-width: .6px;
      }
    </style>
  </defs>
  <path class="st7" d="M322.5,504H57.3c-31.2,0-56.6-26.5-56.6-59.2V59.2c0-32.7,25.3-59.2,56.6-59.2h265.2c31.2,0,56.6,26.5,56.6,59.2,0,0,.3,357.8,0,385.7,0,32.7-25.3,59.2-56.6,59.2Z"/>
  <g>
    <path class="st1" d="M57,489c-22.9,0-41.5-19.8-41.6-44l1.2-69.2c6.3-2.1,12.3-5,18-8.5,8.2-5,15.5-11.3,21.8-18.7l21.8-25.5-62.8,1.3V59.2c0-24.4,18.7-44.2,41.6-44.2h265.2c22.9,0,41.6,19.8,41.6,44.2v262.9h-52.8l14.3,22.9c5.1,8.1,11.5,14.9,19.3,20.1,6.8,4.6,13.7,7.4,19.9,9l-.7,70.6c0,24.4-18.6,44.2-41.6,44.2H57Z"/>
    <path class="st5" d="M63.4,480.8c-21.8,0-39.5-18.8-39.6-42l1.1-65.9c6-2,11.7-4.7,17.2-8.1,7.8-4.8,14.8-10.8,20.8-17.8l20.8-24.2-59.8,1.3V71.5c0-23.2,17.8-42.1,39.6-42.1h252.6c21.8,0,39.6,18.9,39.6,42.1v250.4h-50.3l13.6,21.8c4.8,7.7,11,14.2,18.4,19.2,6.5,4.4,13,7.1,19,8.6l-.7,67.2c0,23.2-17.8,42.1-39.6,42.1H63.4Z"/>
    <path class="st11" d="M69.7,472.7c-20.7,0-37.5-17.9-37.6-39.9l1-62.6c5.7-1.9,11.1-4.5,16.3-7.7,7.4-4.5,14-10.2,19.8-16.9l19.7-23-56.8,1.2V83.9c0-22,16.9-40,37.6-40h239.9c20.7,0,37.6,17.9,37.6,40v237.8h-47.8l12.9,20.8c4.6,7.4,10.5,13.5,17.5,18.2,6.2,4.2,12.4,6.7,18,8.2l-.6,63.9c0,22-16.9,40-37.6,40H69.7Z"/>
    <path class="st10" d="M76.1,464.5c-19.6,0-35.6-16.9-35.6-37.8l1-59.3c5.4-1.8,10.5-4.3,15.4-7.3,7-4.3,13.3-9.7,18.7-16l18.7-21.8-53.8,1.1V96.2c0-20.9,16-37.8,35.6-37.8h227.2c19.6,0,35.6,17,35.6,37.8v225.3h-45.2l12.2,19.6c4.3,7,9.9,12.8,16.5,17.3,5.9,4,11.7,6.4,17.1,7.8l-.6,60.5c0,20.9-16,37.9-35.6,37.9H76.1Z"/>
    <path class="st13" d="M82.4,456.4c-18.5,0-33.6-16-33.6-35.6l.9-56c5.1-1.7,10-4,14.6-6.9,6.6-4.1,12.6-9.1,17.7-15.1l17.6-20.6-50.8,1.1V108.6c0-19.7,15.1-35.7,33.6-35.7h214.6c18.5,0,33.6,16,33.6,35.7v212.7h-42.7l11.6,18.6c4.1,6.6,9.4,12.1,15.6,16.3,5.5,3.8,11.1,6,16.1,7.3l-.6,57.1c0,19.7-15.1,35.7-33.6,35.7H82.4Z"/>
    <path class="st8" d="M88.8,448.2c-17.4,0-31.6-15-31.7-33.5l.9-52.7c4.8-1.6,9.4-3.8,13.7-6.5,6.2-3.8,11.8-8.6,16.6-14.2l16.6-19.4-47.8,1V120.9c0-18.5,14.2-33.6,31.6-33.6h201.9c17.5,0,31.6,15.1,31.6,33.6v200.2h-40.2l10.9,17.5c3.9,6.2,8.8,11.4,14.7,15.3,5.2,3.5,10.4,5.6,15.2,6.9l-.5,53.8c0,18.5-14.2,33.6-31.6,33.6H88.8Z"/>
    <path class="st4" d="M95.1,440.1c-16.3,0-29.6-14.1-29.7-31.4l.8-49.4c4.5-1.5,8.8-3.5,12.8-6,5.8-3.6,11.1-8.1,15.6-13.3l15.6-18.2-44.8.9v-189.3c0-17.4,13.3-31.5,29.7-31.5h189.3c16.4,0,29.7,14.1,29.7,31.5v187.7h-37.7l10.2,16.4c3.6,5.8,8.2,10.6,13.8,14.4,4.9,3.3,9.8,5.3,14.2,6.5l-.5,50.4c0,17.4-13.3,31.5-29.7,31.5H95.1Z"/>
    <path class="st0" d="M101.5,431.9c-15.2,0-27.6-13.1-27.7-29.3l.8-46.1c4.2-1.4,8.2-3.3,12-5.6,5.4-3.3,10.3-7.5,14.6-12.5l14.5-17-41.8.9v-176.7c0-16.2,12.4-29.4,27.7-29.4h176.6c15.3,0,27.7,13.2,27.7,29.4v175.1h-35.2l9.5,15.3c3.4,5.4,7.7,9.9,12.9,13.4,4.5,3.1,9.1,4.9,13.3,6l-.5,47c0,16.2-12.4,29.4-27.7,29.4H101.5Z"/>
    <path class="st9" d="M107.8,423.8c-14.2,0-25.7-12.2-25.7-27.2l.7-42.8c3.9-1.3,7.6-3.1,11.1-5.2,5.1-3.1,9.6-7,13.5-11.6l13.5-15.7-38.8.8v-164c0-15.1,11.5-27.3,25.7-27.3h164c14.2,0,25.7,12.2,25.7,27.3v162.6h-32.6l8.8,14.2c3.1,5,7.1,9.2,11.9,12.5,4.2,2.9,8.5,4.6,12.3,5.6l-.4,43.7c0,15.1-11.5,27.3-25.7,27.3H107.8Z"/>
    <path class="st6" d="M114.1,415.6c-13.1,0-23.7-11.3-23.7-25.1l.7-39.5c3.6-1.2,7-2.8,10.3-4.8,4.7-2.9,8.9-6.5,12.5-10.7l12.4-14.5-35.8.8v-151.4c0-13.9,10.6-25.2,23.7-25.2h151.3c13.1,0,23.7,11.3,23.7,25.2v150h-30.1l8.1,13.1c2.9,4.6,6.6,8.5,11,11.5,3.9,2.6,7.8,4.2,11.4,5.2l-.4,40.3c0,13.9-10.6,25.2-23.7,25.2H114.1Z"/>
    <path class="st3" d="M120.5,407.4c-12,0-21.7-10.3-21.7-23l.6-36.2c3.3-1.1,6.4-2.6,9.4-4.4,4.3-2.6,8.1-5.9,11.4-9.8l11.4-13.3-32.8.7v-138.7c0-12.7,9.8-23.1,21.7-23.1h138.7c12,0,21.7,10.4,21.7,23.1v137.5h-27.6l7.5,12c2.6,4.2,6,7.8,10.1,10.5,3.6,2.4,7.2,3.9,10.4,4.7l-.4,36.9c0,12.7-9.8,23.1-21.7,23.1H120.5Z"/>
    <path class="st14" d="M126.8,399.3c-10.9,0-19.7-9.4-19.8-20.9l.6-32.9c3-1,5.8-2.4,8.6-4,3.9-2.4,7.4-5.4,10.4-8.9l10.4-12.1-29.8.6v-126c0-11.6,8.9-21,19.8-21h126c10.9,0,19.8,9.4,19.8,21v124.9h-25.1l6.8,10.9c2.4,3.9,5.5,7.1,9.2,9.6,3.2,2.2,6.5,3.5,9.5,4.3l-.3,33.5c0,11.6-8.9,21-19.8,21h-126,0Z"/>
    <path class="st2" d="M133.2,391.1c-9.8,0-17.7-8.4-17.8-18.8l.5-29.6c2.7-.9,5.2-2.1,7.7-3.6,3.5-2.1,6.6-4.8,9.3-8l9.3-10.9-26.8.6v-113.4c0-10.4,8-18.9,17.8-18.9h113.3c9.8,0,17.8,8.5,17.8,18.9v112.4h-22.6l6.1,9.8c2.2,3.5,4.9,6.4,8.2,8.6,2.9,2,5.9,3.2,8.5,3.9l-.3,30.2c0,10.4-8,18.9-17.8,18.9h-113.3,0Z"/>
    <path class="st15" d="M139.5,383c-8.7,0-15.8-7.5-15.8-16.7l.4-26.3c2.4-.8,4.7-1.9,6.8-3.2,3.1-1.9,5.9-4.3,8.3-7.1l8.3-9.7-23.8.5v-100.7c0-9.2,7.1-16.8,15.8-16.8h100.7c8.7,0,15.8,7.5,15.8,16.8v99.8h-20.1l5.4,8.7c1.9,3.1,4.4,5.7,7.3,7.6,2.6,1.8,5.2,2.8,7.6,3.4l-.3,26.8c0,9.2-7.1,16.8-15.8,16.8h-100.7Z"/>
  </g>
  <g>
    <path class="st12" d="M284.3,59.9c-1.2.6-2.3,1.2-3,1.7v19l12,4.1c1.5-.6,5.6-.9,9.5-1,4,0,7.5.4,9,1l11.7-4.1c0-2.5,0-5.2,0-7.7-1.3.2-2.7.4-4.2.6l3.7-3.2v-12.7c-.3,0-.6.2-1,.2l1.9-2.8v-10.3h-42.6v10.8l3,4.4h0Z"/>
    <g>
      <path class="st12" d="M292.4,72.9c4.2.7,9.5,1.2,15.4,1.2s11.4-.5,15.7-1.2c0,2.5,0,5,0,7.5-3.5-1.4-11.4-2.3-20.6-2.2-8.7,0-18.1.8-21.6,2.2v-18.8c3.2-2.2,10.8-5,17.3-7.2,6.8-2.3,12.9-3,17-3.2v-3.7l-34.3,7.8v-10.6h42.6s0,10.2,0,10.2c-4,.6-11.4,2.1-18.8,6.5-6.7,4-10.6,8.6-12.7,11.4h0Z"/>
      <path class="st12" d="M322.9,57.6v12.7c-3.1.6-7.2,1.2-12,1.2-5.1,0-9.4-.6-12.7-1.2,2.7-2.3,6.6-5.3,11.8-7.9,4.8-2.4,9.3-3.9,12.9-4.8h0Z"/>
    </g>
  </g>
</svg>