<?xml version="1.0" encoding="UTF-8"?><svg xmlns="http://www.w3.org/2000/svg" viewBox="0 0 836.44 171.42"><defs><style>.d,.e{stroke:#000;stroke-miterlimit:10;stroke-width:5px;}.e{fill:#e30613;}</style></defs><g id="a"/><g id="b"><g id="c"><g><path class="d" d="M833.94,2.51l-102.47,.53-59.66,34.15V2.59l-53.05-.08c-.41,.59-35.58,31.1-35.73,31.31v-8.7l-19.83-22.61h-47l-11.56,21.64V2.51l-102.47,.53-47.43,84.48L296.12,2.51h-104.2V11.53l-10.34-9.02L2.5,2.62V46.99l34.12,9.97c-14.37,5.69-26.94,11.42-34.12,16.32v81.28l268.72,14.32s19.03-3.19,31.91-3.3c.22,0,91.75,3.04,91.75,3.04l18.04,.26v-9.63c3.02,.18,15.74,4.08,17.27,4.95v4.68h133.48l270.27-16.37V2.51Z"/><g><g><path class="e" d="M49.2,120.92c17.82,2.77,39.7,4.99,64.73,4.99,25.11,0,47.95-2.22,65.81-4.99,.3,10.53-.28,21.07,.02,31.59-14.65-5.97-47.94-9.69-86.56-9.37-36.61,.3-75.98,3.46-90.71,9.37V73.28c13.33-9.08,45.15-21.04,72.7-30.25,28.62-9.55,54.13-12.46,71.47-13.31V14L2.5,46.99V2.62l179.09-.1V45.45c-16.94,2.47-47.68,8.86-79.11,27.52-28.17,16.73-44.67,36.06-53.28,47.94Z"/><path class="e" d="M177.64,56.34v53.55c-13.12,2.63-30.25,5.01-50.37,5.12-21.45,.12-39.62-2.38-53.28-5.12,11.26-9.84,27.58-22.12,49.64-33.29,20.25-10.24,39.19-16.43,54.01-20.26Z"/></g><path class="e" d="M296.12,2.51h-104.2V152.51h50.19v-13.31c4.35-2.45,9.62-5,15.82-7.26,12.87-4.69,24.69-6.29,33.28-6.8v27.37h51.28v-63.8L296.12,2.51Zm-41.64,109.47V22.17c10.3,11.38,21.53,25.72,31.64,43.09,6.79,11.66,11.91,22.69,15.82,32.66l-47.46,14.06Z"/><path class="e" d="M683.37,88.71v63.8h51.28v-27.37c8.59,.52,20.41,2.11,33.28,6.8,6.2,2.26,11.47,4.81,15.82,7.26v13.31h50.19V2.51l-102.47,.53-48.09,85.67Zm40.55,9.21c3.91-9.97,9.03-21,15.82-32.66,10.11-17.38,21.34-31.71,31.64-43.09V111.99l-47.46-14.06Z"/><path class="e" d="M354.06,88.71v63.8h51.28v-27.37c8.59,.52,20.41,2.11,33.28,6.8,6.2,2.26,11.47,4.81,15.82,7.26v13.31h50.19V2.51l-102.47,.53-48.09,85.67Zm40.55,9.21c3.91-9.97,9.03-21,15.82-32.66,10.11-17.38,21.34-31.71,31.64-43.09V111.99l-47.46-14.06Z"/><path class="e" d="M611.11,152.47c-4.63-8.78-11.49-21.9-10.91-42.75,.67-24.25,12.32-42.46,18.17-51.06l-.17,93.85,36.96,.04,16.64-11.83V2.59l-53.06-.08c-7.42,10.75-15.9,24.77-22.91,40.07-7.69,16.78-11.19,31.91-12.82,43.55V25.12l-19.83-22.61h-47V152.51h35.46l12-8.77v-49.9c4.13,3.58,17.87,16.22,19.37,32.86,.36,4.06,1,11.17-3.8,18.55-2.21,3.4-4.89,5.79-6.84,7.29h0l38.73-.08Z"/></g></g></g></g></svg>