<?xml version="1.0" encoding="UTF-8"?>
<svg id="Layer_1" xmlns="http://www.w3.org/2000/svg" version="1.1" viewBox="0 0 1000 1000">
  <!-- Generator: Adobe Illustrator 29.1.0, SVG Export Plug-In . SVG Version: 2.1.0 Build 142)  -->
  <defs>
    <style>
      .st0 {
        stroke: #b2b2b2;
        stroke-miterlimit: 10;
        stroke-width: 5.1px;
      }
    </style>
  </defs>
  <path class="st0" d="M238.6,431.1c-17.5,8.5-32.4,16.6-43.5,24.2v271.7l171,58.5c22-8.8,80.9-13.6,135.6-14,57.7-.5,107.5,5.1,129.4,14l167.5-58.3c-1-35.8,1-73.8,0-109.6-18.6,2.9-38.8,5.6-60.2,8l53.1-45.5v-182.3c-4.4,1.1-8.9,2.3-13.5,3.6l27-39.4v-147.5l-609.8.4v153.5l43.5,62.9h0Z"/>
  <g>
    <path class="st0" d="M354.1,617.5c60.7,9.4,135.2,17,220.4,17,85.5,0,163.3-7.6,224.1-17,1,35.9-1,71.7,0,107.6-49.9-20.3-163.2-33-294.7-31.9-124.7,1-258.7,11.8-308.9,31.9v-269.8c45.4-30.9,153.8-71.7,247.6-103,97.4-32.5,184.3-42.4,243.4-45.3v-53.6l-490.9,112.3v-151.1l609.8-.4v146.2c-57.7,8.4-162.4,30.2-269.4,93.7-95.9,57-152.1,122.8-181.4,163.2h0Z"/>
    <path class="st0" d="M791.5,397.6v182.3c-44.7,9-103,17.1-171.5,17.4-73,.4-134.9-8.1-181.4-17.4,38.3-33.5,93.9-75.3,169-113.3,69-34.9,133.5-56,183.9-69h0Z"/>
  </g>
</svg>